<?xml version="1.0" standalone="no"?>
<!DOCTYPE svg PUBLIC "-//W3C//DTD SVG 20010904//EN"
 "http://www.w3.org/TR/2001/REC-SVG-20010904/DTD/svg10.dtd">
<svg version="1.0" xmlns="http://www.w3.org/2000/svg"
 width="710.000000pt" height="200.000000pt" viewBox="0 0 710.000000 200.000000"
 preserveAspectRatio="xMidYMid meet">

<g transform="translate(0.000000,200.000000) scale(0.100000,-0.100000)"
fill="#000000" stroke="none">
<path d="M1 1563 l0 -438 19 86 c20 98 72 231 118 304 l32 50 0 -297 0 -297
30 -34 c27 -31 30 -41 30 -104 0 -62 -3 -72 -26 -94 -40 -37 -57 -77 -70 -159
l-11 -75 -30 65 c-37 80 -59 148 -78 231 -12 58 -13 25 -14 -368 l-1 -433 438
1 c395 1 430 2 369 14 -117 24 -107 11 -107 139 l0 112 35 17 c103 49 99 207
-5 259 -22 12 -58 18 -97 18 -61 0 -63 1 -63 26 0 116 -100 214 -218 214 l-52
0 0 60 c0 34 4 60 10 60 20 0 50 65 50 108 l0 42 104 0 105 0 3 -32 c2 -23 9
-34 22 -37 42 -7 46 19 46 281 l0 248 33 29 c28 26 32 35 32 81 0 45 -4 55
-32 80 -18 16 -49 32 -70 36 -22 4 -60 25 -91 50 l-52 43 62 35 c73 40 185 81
278 100 59 13 28 14 -367 15 l-433 1 1 -437z"/>
<path d="M1000 1936 l0 -63 73 -7 c103 -9 190 -33 283 -76 117 -54 189 -106
282 -205 69 -73 92 -105 137 -199 74 -153 89 -220 89 -386 0 -166 -15 -233
-89 -386 -45 -94 -68 -126 -137 -199 -159 -168 -345 -261 -565 -281 l-73 -7 0
-63 0 -64 3050 0 3050 0 0 1000 0 1000 -3050 0 -3050 0 0 -64z"/>
<path d="M1000 1000 l0 -212 33 7 c53 11 120 57 144 100 72 129 2 279 -144
310 l-33 7 0 -212z"/>
<path d="M470 960 c-14 -26 3 -60 30 -60 24 0 38 44 20 65 -17 21 -37 19 -50
-5z"/>
</g>
</svg>
